<?xml version="1.0" encoding="UTF-8" standalone="no"?>
<!-- Created with Inkscape (http://www.inkscape.org/) -->

<svg
   xmlns:dc="http://purl.org/dc/elements/1.1/"
   xmlns:cc="http://creativecommons.org/ns#"
   xmlns:rdf="http://www.w3.org/1999/02/22-rdf-syntax-ns#"
   xmlns:svg="http://www.w3.org/2000/svg"
   xmlns="http://www.w3.org/2000/svg"
   xmlns:sodipodi="http://sodipodi.sourceforge.net/DTD/sodipodi-0.dtd"
   xmlns:inkscape="http://www.inkscape.org/namespaces/inkscape"
   width="204"
   height="230.00002"
   id="svg37869"
   version="1.1"
   inkscape:version="0.91 r"
   sodipodi:docname="seriesfinale_cover.svg"
   inkscape:export-filename="/home/core/Dokumente/Code/harbour-seriesfinale/qml/cover/seriesfinale_cover.png"
   inkscape:export-xdpi="89.999992"
   inkscape:export-ydpi="89.999992">
  <defs
     id="defs37871" />
  <sodipodi:namedview
     id="base"
     pagecolor="#ffffff"
     bordercolor="#666666"
     borderopacity="1.0"
     inkscape:pageopacity="0.0"
     inkscape:pageshadow="2"
     inkscape:zoom="2.1649824"
     inkscape:cx="73.195172"
     inkscape:cy="105.99564"
     inkscape:document-units="px"
     inkscape:current-layer="g10838"
     showgrid="false"
     fit-margin-top="0"
     fit-margin-left="0"
     fit-margin-right="0"
     fit-margin-bottom="0"
     inkscape:window-width="1950"
     inkscape:window-height="1128"
     inkscape:window-x="183"
     inkscape:window-y="201"
     inkscape:window-maximized="0" />
  <metadata
     id="metadata37874">
    <rdf:RDF>
      <cc:Work
         rdf:about="">
        <dc:format>image/svg+xml</dc:format>
        <dc:type
           rdf:resource="http://purl.org/dc/dcmitype/StillImage" />
        <dc:title />
      </cc:Work>
    </rdf:RDF>
  </metadata>
  <g
     inkscape:label="Ebene 1"
     inkscape:groupmode="layer"
     id="layer1"
     transform="translate(-542.94202,-162.80379)">
    <g
       id="g10838"
       transform="matrix(148.89354,0,0,-148.89354,447.18679,107.80918)">
      <text
         xml:space="preserve"
         style="font-style:normal;font-variant:normal;font-weight:normal;font-stretch:normal;font-size:0.26910755px;line-height:125%;font-family:'Comic Sans MS';-inkscape-font-specification:'Comic Sans MS';letter-spacing:0px;word-spacing:0px;opacity:0.1;fill:#ffffff;fill-opacity:1;stroke:none"
         x="1.3587096"
         y="1.3289734"
         id="text2999"
         sodipodi:linespacing="125%"
         transform="scale(1,-1)"><tspan
           sodipodi:role="line"
           id="tspan3001"
           x="1.3587096"
           y="1.3289734"
           style="font-style:normal;font-variant:normal;font-weight:normal;font-stretch:normal;font-size:0.9687869px;font-family:'Comic Sans MS';-inkscape-font-specification:'Comic Sans MS';fill:#ffffff;fill-opacity:1" /></text>
      <g
         transform="matrix(0.01991354,0,0,-0.01991354,0.88031961,-0.54030221)"
         id="g25"
         style="opacity:0.1;fill:#ffffff;fill-opacity:1">
        <defs
           id="defs27" />
        <sodipodi:namedview
           id="base-5"
           pagecolor="#ffffff"
           bordercolor="#666666"
           borderopacity="1.0"
           inkscape:pageopacity="0.0"
           inkscape:pageshadow="2"
           inkscape:zoom="7.9195959"
           inkscape:cx="28.984502"
           inkscape:cy="45.178685"
           inkscape:document-units="px"
           inkscape:current-layer="layer1"
           showgrid="false"
           fit-margin-top="0"
           fit-margin-left="0"
           fit-margin-right="0"
           fit-margin-bottom="0"
           inkscape:window-width="1440"
           inkscape:window-height="855"
           inkscape:window-x="0"
           inkscape:window-y="26"
           inkscape:window-maximized="1" />
        <metadata
           id="metadata7">
          <rdf:RDF>
            <cc:Work
               rdf:about="">
              <dc:format>image/svg+xml</dc:format>
              <dc:type
                 rdf:resource="http://purl.org/dc/dcmitype/StillImage" />
              <dc:title />
            </cc:Work>
          </rdf:RDF>
        </metadata>
        <g
           inkscape:label="Layer 1"
           inkscape:groupmode="layer"
           id="layer1-7"
           transform="translate(-248.53125,-301.04718)"
           style="fill:#ffffff;fill-opacity:1">
          <path
             style="fill:#ffffff;fill-opacity:1;stroke:none"
             d="m 271.09375,318.21875 c -2.68785,0 -4.85541,2.13681 -4.90625,4.8125 l 9.84375,0 0,-0.125 c -0.13123,-2.62071 -2.31351,-4.6875 -4.9375,-4.6875 z"
             id="path3839"
             inkscape:connector-curvature="0" />
          <path
             style="fill:#ffffff;fill-opacity:1;stroke:none"
             d="m 252,321.28125 c -1.92994,0 -3.46875,1.62527 -3.46875,3.625 l 0,22.78125 c 0,1.99973 1.53881,3.59375 3.46875,3.59375 l 38.1875,0 c 1.92994,0 3.5,-1.59402 3.5,-3.59375 l 0,-22.78125 c 0,-1.99973 -1.57006,-3.625 -3.5,-3.625 l -38.1875,0 z m 1.65625,1.84375 34.625,0 c 1.74985,0 3.15625,1.29671 3.15625,2.90625 l 0,18.34375 c 0,1.60954 -1.4064,2.90625 -3.15625,2.90625 l -34.625,0 c -1.74985,0 -3.15625,-1.29671 -3.15625,-2.90625 l 0,-18.34375 c 0,-1.60954 1.4064,-2.90625 3.15625,-2.90625 z"
             id="rect3049"
             inkscape:connector-curvature="0" />
          <path
             style="fill:#ffffff;fill-opacity:1;stroke:#ffffff;stroke-opacity:1"
             d="m 262.38712,304.34422 8.08122,16.92006"
             id="path3877"
             inkscape:connector-curvature="0" />
          <path
             sodipodi:type="arc"
             style="fill:#ffffff;fill-opacity:1;stroke:none"
             id="path3839-4"
             sodipodi:cx="269.58447"
             sodipodi:cy="318.61264"
             sodipodi:rx="4.9244938"
             sodipodi:ry="4.9244938"
             d="m 274.50897,318.61264 a 4.9244938,4.9244938 0 0 1 -4.8629,4.92411 4.9244938,4.9244938 0 0 1 -4.98455,-4.80093 4.9244938,4.9244938 0 0 1 4.7382,-5.04421 4.9244938,4.9244938 0 0 1 5.10308,4.67474"
             sodipodi:start="0"
             sodipodi:end="6.2331517"
             sodipodi:open="true"
             transform="matrix(0.43874924,0,0,0.43874924,143.72834,163.54302)" />
          <path
             style="fill:#ffffff;fill-opacity:1;stroke:#ffffff;stroke-opacity:1"
             d="m 280.31734,304.21795 -8.08122,16.92006"
             id="path3877-3"
             inkscape:connector-curvature="0" />
          <path
             sodipodi:type="arc"
             style="fill:#ffffff;fill-opacity:1;stroke:none"
             id="path3839-4-1"
             sodipodi:cx="269.58447"
             sodipodi:cy="318.61264"
             sodipodi:rx="4.9244938"
             sodipodi:ry="4.9244938"
             d="m 274.50897,318.61264 a 4.9244938,4.9244938 0 0 1 -4.8629,4.92411 4.9244938,4.9244938 0 0 1 -4.98455,-4.80093 4.9244938,4.9244938 0 0 1 4.7382,-5.04421 4.9244938,4.9244938 0 0 1 5.10308,4.67474"
             sodipodi:start="0"
             sodipodi:end="6.2331517"
             sodipodi:open="true"
             transform="matrix(0.43874924,0,0,0.43874924,162.54242,163.41674)" />
        </g>
      </g>
    </g>
  </g>
</svg>
