<?xml version="1.0" encoding="UTF-8" standalone="no"?>
<!-- Generator: Adobe Illustrator 17.0.1, SVG Export Plug-In . SVG Version: 6.00 Build 0)  -->

<svg
   xmlns:dc="http://purl.org/dc/elements/1.1/"
   xmlns:cc="http://creativecommons.org/ns#"
   xmlns:rdf="http://www.w3.org/1999/02/22-rdf-syntax-ns#"
   xmlns:svg="http://www.w3.org/2000/svg"
   xmlns="http://www.w3.org/2000/svg"
   xmlns:xlink="http://www.w3.org/1999/xlink"
   xmlns:sodipodi="http://sodipodi.sourceforge.net/DTD/sodipodi-0.dtd"
   xmlns:inkscape="http://www.inkscape.org/namespaces/inkscape"
   version="1.1"
   x="0px"
   y="0px"
   width="86px"
   height="86px"
   viewBox="0 0 86 86"
   enable-background="new 0 0 86 86"
   xml:space="preserve"
   id="svg2"
   inkscape:version="0.91 r"
   sodipodi:docname="seriesfinale.svg"
   inkscape:export-filename="/home/core/Dokumente/Code/harbour-seriesfinale/harbour-seriesfinale.png"
   inkscape:export-xdpi="90"
   inkscape:export-ydpi="90"><metadata
     id="metadata25"><rdf:RDF><cc:Work
         rdf:about=""><dc:format>image/svg+xml</dc:format><dc:type
           rdf:resource="http://purl.org/dc/dcmitype/StillImage" /><dc:title /></cc:Work></rdf:RDF></metadata><defs
     id="defs23"><linearGradient
       inkscape:collect="always"
       id="linearGradient4180"><stop
         id="stop4184"
         offset="0"
         style="stop-color:#b3b3b3;stop-opacity:1" /><stop
         id="stop4182"
         offset="1"
         style="stop-color:#4d4d4d;stop-opacity:1;" /></linearGradient><linearGradient
       y2="18.8514"
       x2="6.7618999"
       y1="91.327904"
       x1="79.238297"
       gradientUnits="userSpaceOnUse"
       id="SVGID_1_"
       spreadMethod="pad"><stop
         id="stop4166"
         style="stop-color:#2BBD99"
         offset="0" /><stop
         id="stop4168"
         style="stop-color:#008344"
         offset="0.9951" /></linearGradient><linearGradient
       inkscape:collect="always"
       xlink:href="#linearGradient4180"
       id="linearGradient4186"
       x1="83.44915"
       y1="42.271187"
       x2="11.360015"
       y2="57.940678"
       gradientUnits="userSpaceOnUse" /></defs><sodipodi:namedview
     pagecolor="#ffffff"
     bordercolor="#666666"
     borderopacity="1"
     objecttolerance="10"
     gridtolerance="10"
     guidetolerance="10"
     inkscape:pageopacity="0"
     inkscape:pageshadow="2"
     inkscape:window-width="1611"
     inkscape:window-height="981"
     id="namedview21"
     showgrid="false"
     inkscape:snap-object-midpoints="false"
     inkscape:zoom="7.7617302"
     inkscape:cx="35.033832"
     inkscape:cy="42.170436"
     inkscape:window-x="849"
     inkscape:window-y="215"
     inkscape:window-maximized="0"
     inkscape:current-layer="svg2" /><g
     id="Layer_2"
     display="none" /><g
     id="Layer_1"
     transform="translate(0.12883725,0.12883725)"><linearGradient
       id="linearGradient4170"
       gradientUnits="userSpaceOnUse"
       x1="79.238297"
       y1="91.327904"
       x2="6.7618999"
       y2="18.8514"><stop
         offset="0"
         style="stop-color:#2BBD99"
         id="stop7" /><stop
         offset="0.9951"
         style="stop-color:#008344"
         id="stop9" /></linearGradient><path
       d="M 43,0.3 C 19.417,0.3 0.3,19.418 0.3,43 c 0,0.408 0,41.277 0,41.277 0,0.786 0.637,1.423 1.423,1.423 l 82.553,0 c 0.786,0 1.423,-0.637 1.423,-1.423 0,0 0,-40.908 0,-41.277 C 85.7,19.418 66.583,0.3 43,0.3 Z"
       id="path11"
       style="fill:url(#linearGradient4186);fill-opacity:1;stroke:none;stroke-width:1;stroke-miterlimit:0.2;stroke-dasharray:none;stroke-linejoin:miter;stroke-opacity:1"
       inkscape:connector-curvature="0" /><g
       id="g13" /></g><g
     transform="matrix(1.2108017,0,0,1.2108017,16.070522,14.682428)"
     id="g25"><defs
       id="defs27" /><sodipodi:namedview
       id="base"
       pagecolor="#ffffff"
       bordercolor="#666666"
       borderopacity="1.0"
       inkscape:pageopacity="0.0"
       inkscape:pageshadow="2"
       inkscape:zoom="7.9195959"
       inkscape:cx="28.984502"
       inkscape:cy="45.178685"
       inkscape:document-units="px"
       inkscape:current-layer="layer1"
       showgrid="false"
       fit-margin-top="0"
       fit-margin-left="0"
       fit-margin-right="0"
       fit-margin-bottom="0"
       inkscape:window-width="1440"
       inkscape:window-height="855"
       inkscape:window-x="0"
       inkscape:window-y="26"
       inkscape:window-maximized="1" /><metadata
       id="metadata7"><rdf:RDF><cc:Work
           rdf:about=""><dc:format>image/svg+xml</dc:format><dc:type
             rdf:resource="http://purl.org/dc/dcmitype/StillImage" /><dc:title /></cc:Work></rdf:RDF></metadata><g
       inkscape:label="Layer 1"
       inkscape:groupmode="layer"
       id="layer1"
       transform="translate(-248.53125,-301.04718)"><path
         style="fill:#ffffff;fill-opacity:1;stroke:none"
         d="m 271.09375,318.21875 c -2.68785,0 -4.85541,2.13681 -4.90625,4.8125 l 9.84375,0 0,-0.125 c -0.13123,-2.62071 -2.31351,-4.6875 -4.9375,-4.6875 z"
         id="path3839"
         inkscape:connector-curvature="0" /><path
         style="fill:#ffffff;fill-opacity:1;stroke:none"
         d="m 252,321.28125 c -1.92994,0 -3.46875,1.62527 -3.46875,3.625 l 0,22.78125 c 0,1.99973 1.53881,3.59375 3.46875,3.59375 l 38.1875,0 c 1.92994,0 3.5,-1.59402 3.5,-3.59375 l 0,-22.78125 c 0,-1.99973 -1.57006,-3.625 -3.5,-3.625 l -38.1875,0 z m 1.65625,1.84375 34.625,0 c 1.74985,0 3.15625,1.29671 3.15625,2.90625 l 0,18.34375 c 0,1.60954 -1.4064,2.90625 -3.15625,2.90625 l -34.625,0 c -1.74985,0 -3.15625,-1.29671 -3.15625,-2.90625 l 0,-18.34375 c 0,-1.60954 1.4064,-2.90625 3.15625,-2.90625 z"
         id="rect3049"
         inkscape:connector-curvature="0" /><path
         style="fill:none;fill-opacity:1;stroke:#ffffff;stroke-opacity:1"
         d="m 262.38712,304.34422 8.08122,16.92006"
         id="path3877"
         inkscape:connector-curvature="0" /><path
         sodipodi:type="arc"
         style="fill:#ffffff;fill-opacity:1;stroke:none"
         id="path3839-4"
         sodipodi:cx="269.58447"
         sodipodi:cy="318.61264"
         sodipodi:rx="4.9244938"
         sodipodi:ry="4.9244938"
         d="m 274.50897,318.61264 a 4.9244938,4.9244938 0 0 1 -4.8629,4.92411 4.9244938,4.9244938 0 0 1 -4.98455,-4.80093 4.9244938,4.9244938 0 0 1 4.7382,-5.04421 4.9244938,4.9244938 0 0 1 5.10308,4.67474"
         sodipodi:start="0"
         sodipodi:end="6.2331517"
         sodipodi:open="true"
         transform="matrix(0.43874924,0,0,0.43874924,143.72834,163.54302)" /><path
         style="fill:none;fill-opacity:1;stroke:#ffffff;stroke-opacity:1"
         d="m 280.31734,304.21795 -8.08122,16.92006"
         id="path3877-3"
         inkscape:connector-curvature="0" /><path
         sodipodi:type="arc"
         style="fill:#ffffff;fill-opacity:1;stroke:none"
         id="path3839-4-1"
         sodipodi:cx="269.58447"
         sodipodi:cy="318.61264"
         sodipodi:rx="4.9244938"
         sodipodi:ry="4.9244938"
         d="m 274.50897,318.61264 a 4.9244938,4.9244938 0 0 1 -4.8629,4.92411 4.9244938,4.9244938 0 0 1 -4.98455,-4.80093 4.9244938,4.9244938 0 0 1 4.7382,-5.04421 4.9244938,4.9244938 0 0 1 5.10308,4.67474"
         sodipodi:start="0"
         sodipodi:end="6.2331517"
         sodipodi:open="true"
         transform="matrix(0.43874924,0,0,0.43874924,162.54242,163.41674)" /></g></g></svg>